<?xml version="1.0" encoding="utf-8"?>
<!-- Generator: Adobe Illustrator 17.0.0, SVG Export Plug-In . SVG Version: 6.00 Build 0)  -->
<!DOCTYPE svg PUBLIC "-//W3C//DTD SVG 1.1//EN" "http://www.w3.org/Graphics/SVG/1.1/DTD/svg11.dtd">
<svg version="1.1" id="Layer_1" xmlns="http://www.w3.org/2000/svg" xmlns:xlink="http://www.w3.org/1999/xlink" x="0px" y="0px"
	 width="835px" height="178px" viewBox="82.5 95.851 835 178" enable-background="new 82.5 95.851 835 178" xml:space="preserve">
<g>
	
		<text transform="matrix(1 0 0 1 305.1308 -165.372)" display="none" enable-background="new    " font-family="'ArialMT'" font-size="36.6352">Business &amp; management</text>
	
		<text transform="matrix(1 0 0 1 710.473 -165.3715)" display="none" enable-background="new    " font-family="'ArialMT'" font-size="36.6352">consultancy</text>
</g>
<g>
	<g>
		<rect x="273.096" y="95.628" fill="#FFFFFF" width="2.986" height="178.447"/>
	</g>
	<g>
		<g>
			<g>
				
					<linearGradient id="SVGID_1_" gradientUnits="userSpaceOnUse" x1="266.694" y1="-34.268" x2="266.694" y2="96.1623" gradientTransform="matrix(1 0 0 -1 -56 224.702)">
					<stop  offset="0" style="stop-color:#553C18"/>
					<stop  offset="0.0374" style="stop-color:#6E5328"/>
					<stop  offset="0.0887" style="stop-color:#886C39"/>
					<stop  offset="0.141" style="stop-color:#9C7E45"/>
					<stop  offset="0.1942" style="stop-color:#A7884D"/>
					<stop  offset="0.25" style="stop-color:#AB8C4F"/>
					<stop  offset="0.2636" style="stop-color:#A7874A"/>
					<stop  offset="0.3075" style="stop-color:#9C7A3F"/>
					<stop  offset="0.35" style="stop-color:#99763B"/>
					<stop  offset="0.3672" style="stop-color:#9C7A3F"/>
					<stop  offset="0.3851" style="stop-color:#A6874A"/>
					<stop  offset="0.4033" style="stop-color:#B79B5C"/>
					<stop  offset="0.4216" style="stop-color:#CEB876"/>
					<stop  offset="0.44" style="stop-color:#ECDD97"/>
					<stop  offset="0.45" style="stop-color:#FFF5AC"/>
					<stop  offset="0.5081" style="stop-color:#FEF3A8"/>
					<stop  offset="0.5684" style="stop-color:#FBED9B"/>
					<stop  offset="0.6293" style="stop-color:#F7E487"/>
					<stop  offset="0.65" style="stop-color:#F5E07E"/>
					<stop  offset="0.683" style="stop-color:#F2DC7B"/>
					<stop  offset="0.7171" style="stop-color:#EACF73"/>
					<stop  offset="0.75" style="stop-color:#DDBC66"/>
					<stop  offset="0.7607" style="stop-color:#D7B663"/>
					<stop  offset="0.8218" style="stop-color:#BA9A54"/>
					<stop  offset="0.8825" style="stop-color:#A6854A"/>
					<stop  offset="0.9423" style="stop-color:#997943"/>
					<stop  offset="1" style="stop-color:#957541"/>
				</linearGradient>
				<path fill="url(#SVGID_1_)" d="M240.378,156.63c-9.851-14.333-22.788-23.06-38.811-26.182c-4.031-0.792-9.292-1.337-15.78-1.636
					c0.277,0.19,0.554,0.38,0.827,0.577c7.957,1.079,63.934,78.236,63.934,78.236c-1.834,8.544-5.435,16.55-10.805,24.016
					c-9.81,13.698-22.614,22.201-38.412,25.514c-4.078,0.828-7.708,1.338-10.893,1.529c-3.187,0.191-10.193,0.286-21.023,0.286
					h1.756c10.599,0,17.456-0.095,20.575-0.286c3.117-0.191,6.67-0.701,10.661-1.529c15.462-3.313,27.994-11.816,37.595-25.514
					c7.98-11.338,11.971-23.919,11.971-37.743C251.975,180.328,248.109,167.905,240.378,156.63z"/>
				
					<linearGradient id="SVGID_2_" gradientUnits="userSpaceOnUse" x1="202.4005" y1="-34.266" x2="202.4005" y2="96.1643" gradientTransform="matrix(1 0 0 -1 -56 224.702)">
					<stop  offset="0" style="stop-color:#553C18"/>
					<stop  offset="0.0374" style="stop-color:#6E5328"/>
					<stop  offset="0.0887" style="stop-color:#886C39"/>
					<stop  offset="0.141" style="stop-color:#9C7E45"/>
					<stop  offset="0.1942" style="stop-color:#A7884D"/>
					<stop  offset="0.25" style="stop-color:#AB8C4F"/>
					<stop  offset="0.2636" style="stop-color:#A7874A"/>
					<stop  offset="0.3075" style="stop-color:#9C7A3F"/>
					<stop  offset="0.35" style="stop-color:#99763B"/>
					<stop  offset="0.3672" style="stop-color:#9C7A3F"/>
					<stop  offset="0.3851" style="stop-color:#A6874A"/>
					<stop  offset="0.4033" style="stop-color:#B79B5C"/>
					<stop  offset="0.4216" style="stop-color:#CEB876"/>
					<stop  offset="0.44" style="stop-color:#ECDD97"/>
					<stop  offset="0.45" style="stop-color:#FFF5AC"/>
					<stop  offset="0.5081" style="stop-color:#FEF3A8"/>
					<stop  offset="0.5684" style="stop-color:#FBED9B"/>
					<stop  offset="0.6293" style="stop-color:#F7E487"/>
					<stop  offset="0.65" style="stop-color:#F5E07E"/>
					<stop  offset="0.683" style="stop-color:#F2DC7B"/>
					<stop  offset="0.7171" style="stop-color:#EACF73"/>
					<stop  offset="0.75" style="stop-color:#DDBC66"/>
					<stop  offset="0.7607" style="stop-color:#D7B663"/>
					<stop  offset="0.8218" style="stop-color:#BA9A54"/>
					<stop  offset="0.8825" style="stop-color:#A6854A"/>
					<stop  offset="0.9423" style="stop-color:#997943"/>
					<stop  offset="1" style="stop-color:#957541"/>
				</linearGradient>
				<polygon fill="url(#SVGID_2_)" points="123.384,258.968 169.417,258.968 123.384,220.674 				"/>
				
					<linearGradient id="SVGID_3_" gradientUnits="userSpaceOnUse" x1="242.9665" y1="-34.265" x2="242.9665" y2="96.1653" gradientTransform="matrix(1 0 0 -1 -56 224.702)">
					<stop  offset="0" style="stop-color:#553C18"/>
					<stop  offset="0.0374" style="stop-color:#6E5328"/>
					<stop  offset="0.0887" style="stop-color:#886C39"/>
					<stop  offset="0.141" style="stop-color:#9C7E45"/>
					<stop  offset="0.1942" style="stop-color:#A7884D"/>
					<stop  offset="0.25" style="stop-color:#AB8C4F"/>
					<stop  offset="0.2636" style="stop-color:#A7874A"/>
					<stop  offset="0.3075" style="stop-color:#9C7A3F"/>
					<stop  offset="0.35" style="stop-color:#99763B"/>
					<stop  offset="0.3672" style="stop-color:#9C7A3F"/>
					<stop  offset="0.3851" style="stop-color:#A6874A"/>
					<stop  offset="0.4033" style="stop-color:#B79B5C"/>
					<stop  offset="0.4216" style="stop-color:#CEB876"/>
					<stop  offset="0.44" style="stop-color:#ECDD97"/>
					<stop  offset="0.45" style="stop-color:#FFF5AC"/>
					<stop  offset="0.5081" style="stop-color:#FEF3A8"/>
					<stop  offset="0.5684" style="stop-color:#FBED9B"/>
					<stop  offset="0.6293" style="stop-color:#F7E487"/>
					<stop  offset="0.65" style="stop-color:#F5E07E"/>
					<stop  offset="0.683" style="stop-color:#F2DC7B"/>
					<stop  offset="0.7171" style="stop-color:#EACF73"/>
					<stop  offset="0.75" style="stop-color:#DDBC66"/>
					<stop  offset="0.7607" style="stop-color:#D7B663"/>
					<stop  offset="0.8218" style="stop-color:#BA9A54"/>
					<stop  offset="0.8825" style="stop-color:#A6854A"/>
					<stop  offset="0.9423" style="stop-color:#997943"/>
					<stop  offset="1" style="stop-color:#957541"/>
				</linearGradient>
				<path fill="url(#SVGID_3_)" d="M201.332,257.153c15.798-3.313,28.602-11.816,38.412-25.514
					c5.37-7.466,8.971-15.471,10.805-24.016c0,0-55.978-77.156-63.934-78.236c4.488,3.227,8.488,7.325,11.988,12.309
					c6.095,8.701,9.144,18.288,9.144,28.759c0,10.669-3.146,20.378-9.439,29.127c-7.57,10.571-17.451,17.133-29.643,19.689
					c-3.147,0.639-5.949,1.032-8.406,1.18c-2.459,0.147-7.866,0.221-16.224,0.221h-20.651l46.033,38.295
					c10.83,0,17.836-0.095,21.023-0.286C193.624,258.491,197.254,257.981,201.332,257.153z"/>
				<path opacity="0.25" enable-background="new    " d="M201.332,257.153c15.798-3.313,28.602-11.816,38.412-25.514
					c5.37-7.466,8.971-15.471,10.805-24.016c0,0-55.978-77.156-63.934-78.236c4.488,3.227,8.488,7.325,11.988,12.309
					c6.095,8.701,9.144,18.288,9.144,28.759c0,10.669-3.146,20.378-9.439,29.127c-7.57,10.571-17.451,17.133-29.643,19.689
					c-3.147,0.639-5.949,1.032-8.406,1.18c-2.459,0.147-7.866,0.221-16.224,0.221h-20.651l46.033,38.295
					c10.83,0,17.836-0.095,21.023-0.286C193.624,258.491,197.254,257.981,201.332,257.153z"/>
			</g>
			<g>
				
					<linearGradient id="SVGID_4_" gradientUnits="userSpaceOnUse" x1="202.9805" y1="12.393" x2="202.9805" y2="113.048" gradientTransform="matrix(1 0 0 -1 -56 224.702)">
					<stop  offset="0" style="stop-color:#553C18"/>
					<stop  offset="0.0374" style="stop-color:#6E5328"/>
					<stop  offset="0.0887" style="stop-color:#886C39"/>
					<stop  offset="0.141" style="stop-color:#9C7E45"/>
					<stop  offset="0.1942" style="stop-color:#A7884D"/>
					<stop  offset="0.25" style="stop-color:#AB8C4F"/>
					<stop  offset="0.2636" style="stop-color:#A7874A"/>
					<stop  offset="0.3075" style="stop-color:#9C7A3F"/>
					<stop  offset="0.35" style="stop-color:#99763B"/>
					<stop  offset="0.3672" style="stop-color:#9C7A3F"/>
					<stop  offset="0.3851" style="stop-color:#A6874A"/>
					<stop  offset="0.4033" style="stop-color:#B79B5C"/>
					<stop  offset="0.4216" style="stop-color:#CEB876"/>
					<stop  offset="0.44" style="stop-color:#ECDD97"/>
					<stop  offset="0.45" style="stop-color:#FFF5AC"/>
					<stop  offset="0.5081" style="stop-color:#FEF3A8"/>
					<stop  offset="0.5684" style="stop-color:#FBED9B"/>
					<stop  offset="0.6293" style="stop-color:#F7E487"/>
					<stop  offset="0.65" style="stop-color:#F5E07E"/>
					<stop  offset="0.683" style="stop-color:#F2DC7B"/>
					<stop  offset="0.7171" style="stop-color:#EACF73"/>
					<stop  offset="0.75" style="stop-color:#DDBC66"/>
					<stop  offset="0.7607" style="stop-color:#D7B663"/>
					<stop  offset="0.8218" style="stop-color:#BA9A54"/>
					<stop  offset="0.8825" style="stop-color:#A6854A"/>
					<stop  offset="0.9423" style="stop-color:#997943"/>
					<stop  offset="1" style="stop-color:#957541"/>
				</linearGradient>
				<path fill="url(#SVGID_4_)" d="M188.533,133.333c-7.767-11.061-17.968-17.795-30.602-20.205
					c-5.114-0.983-12.733-1.474-22.859-1.474H96.284v100.655h27.1v-66.212h16.813v66.195c4.875-0.029,8.211-0.097,9.992-0.204
					c2.458-0.147,5.259-0.541,8.406-1.18c12.191-2.556,22.073-9.118,29.643-19.689c6.293-8.749,9.439-18.458,9.439-29.127
					C197.676,151.621,194.628,142.034,188.533,133.333z M131.408,140.843c-5.923,0-10.125-4.585-10.125-10.317
					c0-5.922,4.394-10.508,10.507-10.508c6.304,0,10.317,4.585,10.317,10.508C142.298,136.258,138.095,140.843,131.408,140.843z"/>
			</g>
		</g>
	</g>
</g>
<g>
	<rect x="-238.552" y="199.32" fill="#FFFFFF" width="2.986" height="178.447"/>
	
		<linearGradient id="SVGID_5_" gradientUnits="userSpaceOnUse" x1="-309.2475" y1="-137.958" x2="-309.2475" y2="-7.5278" gradientTransform="matrix(1 0 0 -1 -56 224.702)">
		<stop  offset="0" style="stop-color:#553C18"/>
		<stop  offset="0.0374" style="stop-color:#6E5328"/>
		<stop  offset="0.0887" style="stop-color:#886C39"/>
		<stop  offset="0.141" style="stop-color:#9C7E45"/>
		<stop  offset="0.1942" style="stop-color:#A7884D"/>
		<stop  offset="0.25" style="stop-color:#AB8C4F"/>
		<stop  offset="0.2636" style="stop-color:#A7874A"/>
		<stop  offset="0.3075" style="stop-color:#9C7A3F"/>
		<stop  offset="0.35" style="stop-color:#99763B"/>
		<stop  offset="0.3672" style="stop-color:#9C7A3F"/>
		<stop  offset="0.3851" style="stop-color:#A6874A"/>
		<stop  offset="0.4033" style="stop-color:#B79B5C"/>
		<stop  offset="0.4216" style="stop-color:#CEB876"/>
		<stop  offset="0.44" style="stop-color:#ECDD97"/>
		<stop  offset="0.45" style="stop-color:#FFF5AC"/>
		<stop  offset="0.5081" style="stop-color:#FEF3A8"/>
		<stop  offset="0.5684" style="stop-color:#FBED9B"/>
		<stop  offset="0.6293" style="stop-color:#F7E487"/>
		<stop  offset="0.65" style="stop-color:#F5E07E"/>
		<stop  offset="0.683" style="stop-color:#F2DC7B"/>
		<stop  offset="0.7171" style="stop-color:#EACF73"/>
		<stop  offset="0.75" style="stop-color:#DDBC66"/>
		<stop  offset="0.7607" style="stop-color:#D7B663"/>
		<stop  offset="0.8218" style="stop-color:#BA9A54"/>
		<stop  offset="0.8825" style="stop-color:#A6854A"/>
		<stop  offset="0.9423" style="stop-color:#997943"/>
		<stop  offset="1" style="stop-color:#957541"/>
	</linearGradient>
	<polygon fill="url(#SVGID_5_)" points="-388.264,362.66 -342.231,362.66 -388.264,324.365 	"/>
	
		<linearGradient id="SVGID_6_" gradientUnits="userSpaceOnUse" x1="-244.9525" y1="-137.959" x2="-244.9525" y2="-7.5288" gradientTransform="matrix(1 0 0 -1 -56 224.702)">
		<stop  offset="0" style="stop-color:#553C18"/>
		<stop  offset="0.0374" style="stop-color:#6E5328"/>
		<stop  offset="0.0887" style="stop-color:#886C39"/>
		<stop  offset="0.141" style="stop-color:#9C7E45"/>
		<stop  offset="0.1942" style="stop-color:#A7884D"/>
		<stop  offset="0.25" style="stop-color:#AB8C4F"/>
		<stop  offset="0.2636" style="stop-color:#A7874A"/>
		<stop  offset="0.3075" style="stop-color:#9C7A3F"/>
		<stop  offset="0.35" style="stop-color:#99763B"/>
		<stop  offset="0.3672" style="stop-color:#9C7A3F"/>
		<stop  offset="0.3851" style="stop-color:#A6874A"/>
		<stop  offset="0.4033" style="stop-color:#B79B5C"/>
		<stop  offset="0.4216" style="stop-color:#CEB876"/>
		<stop  offset="0.44" style="stop-color:#ECDD97"/>
		<stop  offset="0.45" style="stop-color:#FFF5AC"/>
		<stop  offset="0.5081" style="stop-color:#FEF3A8"/>
		<stop  offset="0.5684" style="stop-color:#FBED9B"/>
		<stop  offset="0.6293" style="stop-color:#F7E487"/>
		<stop  offset="0.65" style="stop-color:#F5E07E"/>
		<stop  offset="0.683" style="stop-color:#F2DC7B"/>
		<stop  offset="0.7171" style="stop-color:#EACF73"/>
		<stop  offset="0.75" style="stop-color:#DDBC66"/>
		<stop  offset="0.7607" style="stop-color:#D7B663"/>
		<stop  offset="0.8218" style="stop-color:#BA9A54"/>
		<stop  offset="0.8825" style="stop-color:#A6854A"/>
		<stop  offset="0.9423" style="stop-color:#997943"/>
		<stop  offset="1" style="stop-color:#957541"/>
	</linearGradient>
	<path fill="url(#SVGID_6_)" d="M-310.08,234.14c-4.031-0.792-9.292-1.337-15.78-1.636c0.277,0.19,0.554,0.38,0.827,0.577
		c7.957,1.08,63.934,78.235,63.934,78.235c-1.834,8.544-5.435,16.55-10.805,24.016c-9.81,13.698-22.614,22.201-38.412,25.514
		c-4.078,0.828-7.708,1.338-10.893,1.529c-3.187,0.191-10.193,0.286-21.023,0.286h1.756c10.599,0,17.456-0.095,20.576-0.286
		c3.117-0.191,6.67-0.701,10.661-1.529c15.462-3.313,27.994-11.816,37.595-25.514c7.981-11.337,11.971-23.919,11.971-37.743
		c0-13.569-3.866-25.991-11.597-37.266C-281.12,245.989-294.057,237.263-310.08,234.14z"/>
	
		<linearGradient id="SVGID_7_" gradientUnits="userSpaceOnUse" x1="-268.6805" y1="-137.958" x2="-268.6805" y2="-7.5278" gradientTransform="matrix(1 0 0 -1 -56 224.702)">
		<stop  offset="0" style="stop-color:#553C18"/>
		<stop  offset="0.0374" style="stop-color:#6E5328"/>
		<stop  offset="0.0887" style="stop-color:#886C39"/>
		<stop  offset="0.141" style="stop-color:#9C7E45"/>
		<stop  offset="0.1942" style="stop-color:#A7884D"/>
		<stop  offset="0.25" style="stop-color:#AB8C4F"/>
		<stop  offset="0.2636" style="stop-color:#A7874A"/>
		<stop  offset="0.3075" style="stop-color:#9C7A3F"/>
		<stop  offset="0.35" style="stop-color:#99763B"/>
		<stop  offset="0.3672" style="stop-color:#9C7A3F"/>
		<stop  offset="0.3851" style="stop-color:#A6874A"/>
		<stop  offset="0.4033" style="stop-color:#B79B5C"/>
		<stop  offset="0.4216" style="stop-color:#CEB876"/>
		<stop  offset="0.44" style="stop-color:#ECDD97"/>
		<stop  offset="0.45" style="stop-color:#FFF5AC"/>
		<stop  offset="0.5081" style="stop-color:#FEF3A8"/>
		<stop  offset="0.5684" style="stop-color:#FBED9B"/>
		<stop  offset="0.6293" style="stop-color:#F7E487"/>
		<stop  offset="0.65" style="stop-color:#F5E07E"/>
		<stop  offset="0.683" style="stop-color:#F2DC7B"/>
		<stop  offset="0.7171" style="stop-color:#EACF73"/>
		<stop  offset="0.75" style="stop-color:#DDBC66"/>
		<stop  offset="0.7607" style="stop-color:#D7B663"/>
		<stop  offset="0.8218" style="stop-color:#BA9A54"/>
		<stop  offset="0.8825" style="stop-color:#A6854A"/>
		<stop  offset="0.9423" style="stop-color:#997943"/>
		<stop  offset="1" style="stop-color:#957541"/>
	</linearGradient>
	<path fill="url(#SVGID_7_)" d="M-310.315,360.845c15.798-3.313,28.602-11.816,38.412-25.514
		c5.369-7.466,8.971-15.471,10.805-24.016c0,0-55.977-77.156-63.934-78.235c4.488,3.227,8.487,7.325,11.988,12.309
		c6.095,8.701,9.144,18.288,9.144,28.759c0,10.668-3.146,20.378-9.439,29.127c-7.57,10.571-17.451,17.133-29.643,19.689
		c-3.147,0.639-5.949,1.032-8.406,1.18c-2.459,0.147-7.866,0.221-16.224,0.221h-20.651l46.033,38.295
		c10.83,0,17.836-0.095,21.023-0.286C-318.024,362.183-314.393,361.673-310.315,360.845z"/>
	<path opacity="0.25" enable-background="new    " d="M-310.315,360.845c15.798-3.313,28.602-11.816,38.412-25.514
		c5.369-7.466,8.971-15.471,10.805-24.016c0,0-55.977-77.156-63.934-78.235c4.488,3.227,8.487,7.325,11.988,12.309
		c6.095,8.701,9.144,18.288,9.144,28.759c0,10.668-3.146,20.378-9.439,29.127c-7.57,10.571-17.451,17.133-29.643,19.689
		c-3.147,0.639-5.949,1.032-8.406,1.18c-2.459,0.147-7.866,0.221-16.224,0.221h-20.651l46.033,38.295
		c10.83,0,17.836-0.095,21.023-0.286C-318.024,362.183-314.393,361.673-310.315,360.845z"/>
	
		<linearGradient id="SVGID_8_" gradientUnits="userSpaceOnUse" x1="-315.5309" y1="-91.299" x2="-315.5309" y2="9.356" gradientTransform="matrix(1 0 0 -1 -56 224.702)">
		<stop  offset="0" style="stop-color:#553C18"/>
		<stop  offset="0.0374" style="stop-color:#6E5328"/>
		<stop  offset="0.0887" style="stop-color:#886C39"/>
		<stop  offset="0.141" style="stop-color:#9C7E45"/>
		<stop  offset="0.1942" style="stop-color:#A7884D"/>
		<stop  offset="0.25" style="stop-color:#AB8C4F"/>
		<stop  offset="0.2636" style="stop-color:#A7874A"/>
		<stop  offset="0.3075" style="stop-color:#9C7A3F"/>
		<stop  offset="0.35" style="stop-color:#99763B"/>
		<stop  offset="0.3672" style="stop-color:#9C7A3F"/>
		<stop  offset="0.3851" style="stop-color:#A6874A"/>
		<stop  offset="0.4033" style="stop-color:#B79B5C"/>
		<stop  offset="0.4216" style="stop-color:#CEB876"/>
		<stop  offset="0.44" style="stop-color:#ECDD97"/>
		<stop  offset="0.45" style="stop-color:#FFF5AC"/>
		<stop  offset="0.5081" style="stop-color:#FEF3A8"/>
		<stop  offset="0.5684" style="stop-color:#FBED9B"/>
		<stop  offset="0.6293" style="stop-color:#F7E487"/>
		<stop  offset="0.65" style="stop-color:#F5E07E"/>
		<stop  offset="0.683" style="stop-color:#F2DC7B"/>
		<stop  offset="0.7171" style="stop-color:#EACF73"/>
		<stop  offset="0.75" style="stop-color:#DDBC66"/>
		<stop  offset="0.7607" style="stop-color:#D7B663"/>
		<stop  offset="0.8218" style="stop-color:#BA9A54"/>
		<stop  offset="0.8825" style="stop-color:#A6854A"/>
		<stop  offset="0.9423" style="stop-color:#997943"/>
		<stop  offset="1" style="stop-color:#957541"/>
	</linearGradient>
	<path fill="url(#SVGID_8_)" d="M-390.365,234.218c0-2.446,0.759-4.656,2.069-6.417l0.032-4.091h8.406h13.351
		c10.126,0,17.746,0.491,22.859,1.474c5.838,1.114,11.15,3.163,15.95,6.124c-7.06-7.697-15.733-12.526-26.019-14.488
		c-5.113-0.983-12.733-1.474-22.859-1.474h-38.788v100.655h26.375l0.593-75.538C-389.645,238.732-390.365,236.576-390.365,234.218z"
		/>
	<path fill="#FFFFFF" d="M-388.296,227.801c1.863-2.503,4.85-4.091,8.438-4.091h-8.406L-388.296,227.801z"/>
	
		<linearGradient id="SVGID_9_" gradientUnits="userSpaceOnUse" x1="-328.077" y1="-91.2988" x2="-328.077" y2="9.3561" gradientTransform="matrix(1 0 0 -1 -56 224.702)">
		<stop  offset="0" style="stop-color:#553C18"/>
		<stop  offset="0.0374" style="stop-color:#6E5328"/>
		<stop  offset="0.0887" style="stop-color:#886C39"/>
		<stop  offset="0.141" style="stop-color:#9C7E45"/>
		<stop  offset="0.1942" style="stop-color:#A7884D"/>
		<stop  offset="0.25" style="stop-color:#AB8C4F"/>
		<stop  offset="0.2636" style="stop-color:#A7874A"/>
		<stop  offset="0.3075" style="stop-color:#9C7A3F"/>
		<stop  offset="0.35" style="stop-color:#99763B"/>
		<stop  offset="0.3672" style="stop-color:#9C7A3F"/>
		<stop  offset="0.3851" style="stop-color:#A6874A"/>
		<stop  offset="0.4033" style="stop-color:#B79B5C"/>
		<stop  offset="0.4216" style="stop-color:#CEB876"/>
		<stop  offset="0.44" style="stop-color:#ECDD97"/>
		<stop  offset="0.45" style="stop-color:#FFF5AC"/>
		<stop  offset="0.5081" style="stop-color:#FEF3A8"/>
		<stop  offset="0.5684" style="stop-color:#FBED9B"/>
		<stop  offset="0.6293" style="stop-color:#F7E487"/>
		<stop  offset="0.65" style="stop-color:#F5E07E"/>
		<stop  offset="0.683" style="stop-color:#F2DC7B"/>
		<stop  offset="0.7171" style="stop-color:#EACF73"/>
		<stop  offset="0.75" style="stop-color:#DDBC66"/>
		<stop  offset="0.7607" style="stop-color:#D7B663"/>
		<stop  offset="0.8218" style="stop-color:#BA9A54"/>
		<stop  offset="0.8825" style="stop-color:#A6854A"/>
		<stop  offset="0.9423" style="stop-color:#997943"/>
		<stop  offset="1" style="stop-color:#957541"/>
	</linearGradient>
	<path fill="url(#SVGID_9_)" d="M-388.296,227.801c1.863-2.503,4.85-4.091,8.438-4.091h-8.406L-388.296,227.801z"/>
	<path fill="#FFFFFF" d="M-388.264,249.789h16.813v66.195c4.875-0.029,8.211-0.097,9.992-0.204c2.458-0.147,5.259-0.541,8.406-1.18
		c12.191-2.556,22.073-9.119,29.643-19.689c6.293-8.749,9.439-18.459,9.439-29.127c0-10.471-3.049-20.057-9.144-28.759
		c-1.443-2.055-2.971-3.96-4.583-5.717c-4.799-2.961-10.111-5.01-15.95-6.124c-5.113-0.983-12.733-1.474-22.859-1.474h-13.351
		c6.305,0,10.317,4.586,10.317,10.508c0.191,5.732-4.012,10.317-10.699,10.317c-3.487,0-6.368-1.596-8.156-4.073L-388.989,316h0.724
		v-66.211H-388.264z"/>
	
		<linearGradient id="SVGID_10_" gradientUnits="userSpaceOnUse" x1="-295.48" y1="-91.298" x2="-295.48" y2="9.3569" gradientTransform="matrix(1 0 0 -1 -56 224.702)">
		<stop  offset="0" style="stop-color:#553C18"/>
		<stop  offset="0.0374" style="stop-color:#6E5328"/>
		<stop  offset="0.0887" style="stop-color:#886C39"/>
		<stop  offset="0.141" style="stop-color:#9C7E45"/>
		<stop  offset="0.1942" style="stop-color:#A7884D"/>
		<stop  offset="0.25" style="stop-color:#AB8C4F"/>
		<stop  offset="0.2636" style="stop-color:#A7874A"/>
		<stop  offset="0.3075" style="stop-color:#9C7A3F"/>
		<stop  offset="0.35" style="stop-color:#99763B"/>
		<stop  offset="0.3672" style="stop-color:#9C7A3F"/>
		<stop  offset="0.3851" style="stop-color:#A6874A"/>
		<stop  offset="0.4033" style="stop-color:#B79B5C"/>
		<stop  offset="0.4216" style="stop-color:#CEB876"/>
		<stop  offset="0.44" style="stop-color:#ECDD97"/>
		<stop  offset="0.45" style="stop-color:#FFF5AC"/>
		<stop  offset="0.5081" style="stop-color:#FEF3A8"/>
		<stop  offset="0.5684" style="stop-color:#FBED9B"/>
		<stop  offset="0.6293" style="stop-color:#F7E487"/>
		<stop  offset="0.65" style="stop-color:#F5E07E"/>
		<stop  offset="0.683" style="stop-color:#F2DC7B"/>
		<stop  offset="0.7171" style="stop-color:#EACF73"/>
		<stop  offset="0.75" style="stop-color:#DDBC66"/>
		<stop  offset="0.7607" style="stop-color:#D7B663"/>
		<stop  offset="0.8218" style="stop-color:#BA9A54"/>
		<stop  offset="0.8825" style="stop-color:#A6854A"/>
		<stop  offset="0.9423" style="stop-color:#997943"/>
		<stop  offset="1" style="stop-color:#957541"/>
	</linearGradient>
	<path fill="url(#SVGID_10_)" d="M-388.264,249.789h16.813v66.195c4.875-0.029,8.211-0.097,9.992-0.204
		c2.458-0.147,5.259-0.541,8.406-1.18c12.191-2.556,22.073-9.119,29.643-19.689c6.293-8.749,9.439-18.459,9.439-29.127
		c0-10.471-3.049-20.057-9.144-28.759c-1.443-2.055-2.971-3.96-4.583-5.717c-4.799-2.961-10.111-5.01-15.95-6.124
		c-5.113-0.983-12.733-1.474-22.859-1.474h-13.351c6.305,0,10.317,4.586,10.317,10.508c0.191,5.732-4.012,10.317-10.699,10.317
		c-3.487,0-6.368-1.596-8.156-4.073L-388.989,316h0.724v-66.211H-388.264z"/>
</g>
<path fill="#FFFFFF" d="M313.845,111.524v105.909h-13.67V111.524H313.845z"/>
<path fill="#FFFFFF" d="M346.528,161.965c0-7.856-0.157-14.299-0.628-20.585h12.256l0.786,12.571h0.314
	c3.771-7.229,12.571-14.3,25.142-14.3c10.528,0,26.87,6.286,26.87,32.37v45.412H397.44v-43.841c0-12.257-4.557-22.47-17.599-22.47
	c-9.114,0-16.185,6.442-18.542,14.142c-0.629,1.729-0.943,4.086-0.943,6.442v45.727h-13.828V161.965z"/>
<path fill="#FFFFFF" d="M482.919,112.938c8.328-1.257,18.228-2.199,29.07-2.199c19.642,0,33.626,4.557,42.897,13.199
	c9.428,8.643,14.928,20.898,14.928,38.026c0,17.285-5.343,31.427-15.242,41.17c-9.899,9.899-26.241,15.241-46.826,15.241
	c-9.742,0-17.913-0.471-24.827-1.257L482.919,112.938L482.919,112.938z M496.59,206.591c3.457,0.629,8.485,0.786,13.827,0.786
	c29.228,0,45.099-16.342,45.099-44.94c0.156-24.984-13.985-40.855-42.898-40.855c-7.071,0-12.413,0.629-16.027,1.414L496.59,206.591
	L496.59,206.591z"/>
<path fill="#FFFFFF" d="M603.125,181.921c0.313,18.699,12.256,26.398,26.084,26.398c9.899,0,15.871-1.729,21.056-3.928l2.357,9.899
	c-4.871,2.2-13.199,4.714-25.299,4.714c-23.413,0-37.398-15.399-37.398-38.341s13.514-41.013,35.67-41.013
	c24.827,0,31.427,21.842,31.427,35.827c0,2.828-0.313,5.028-0.471,6.442h-53.426V181.921z M643.665,172.021
	c0.157-8.8-3.613-22.471-19.17-22.471c-13.985,0-20.113,12.886-21.214,22.471H643.665z"/>
<path fill="#FFFFFF" d="M795.612,111.713v29.667h19.799v10.528h-19.799v41.013c0,9.428,2.672,14.771,10.371,14.771
	c3.614,0,6.285-0.472,8.014-0.943l0.629,10.371c-2.672,1.101-6.914,1.886-12.257,1.886c-6.442,0-11.628-2.043-14.928-5.813
	c-3.929-4.086-5.343-10.843-5.343-19.8V151.91h-11.785v-10.53h11.785v-26.053L795.612,111.713z"/>
<path fill="#FFFFFF" d="M838.665,111.713h13.828v41.609h0.314c2.199-3.928,5.656-7.385,9.899-9.742
	c4.085-2.357,8.956-3.929,14.142-3.929c10.214,0,26.557,6.286,26.557,32.527v45.255h-13.828V173.75
	c0-12.257-4.558-22.627-17.6-22.627c-8.956,0-16.027,6.285-18.542,13.827c-0.785,1.886-0.942,3.929-0.942,6.6v45.884h-13.828
	L838.665,111.713L838.665,111.713z"/>
<g enable-background="new    ">
	<path fill="#FFFFFF" d="M714.631,240.772c-2.197,0-3.931,0.731-5.202,2.194s-1.907,3.466-1.907,6.009
		c0,2.616,0.612,4.637,1.839,6.063c1.226,1.427,2.974,2.14,5.243,2.14c1.395,0,2.984-0.251,4.771-0.752v2.037
		c-1.386,0.52-3.095,0.779-5.127,0.779c-2.944,0-5.216-0.894-6.815-2.68s-2.399-4.325-2.399-7.615c0-2.06,0.385-3.864,1.155-5.414
		c0.77-1.55,1.882-2.743,3.336-3.582c1.453-0.839,3.165-1.258,5.134-1.258c2.096,0,3.928,0.383,5.496,1.148l-0.984,1.996
		C717.656,241.127,716.144,240.772,714.631,240.772z"/>
	<path fill="#FFFFFF" d="M741.086,248.948c0,3.199-0.81,5.715-2.427,7.547c-1.618,1.832-3.867,2.748-6.747,2.748
		c-2.944,0-5.216-0.9-6.815-2.7s-2.399-4.341-2.399-7.622c0-3.254,0.802-5.776,2.406-7.567c1.604-1.791,3.883-2.687,6.836-2.687
		c2.871,0,5.113,0.911,6.727,2.734S741.086,245.74,741.086,248.948z M725.158,248.948c0,2.707,0.576,4.76,1.729,6.159
		c1.152,1.399,2.827,2.099,5.024,2.099c2.215,0,3.887-0.697,5.018-2.092c1.13-1.395,1.695-3.45,1.695-6.166
		c0-2.688-0.563-4.729-1.688-6.118c-1.126-1.39-2.792-2.085-4.997-2.085c-2.215,0-3.899,0.699-5.052,2.099
		C725.734,244.243,725.158,246.277,725.158,248.948z"/>
	<path fill="#FFFFFF" d="M761.156,258.969h-2.652l-10.924-16.775h-0.109c0.146,1.969,0.219,3.773,0.219,5.414v11.361h-2.146v-19.988
		h2.625l10.896,16.707h0.109c-0.019-0.246-0.06-1.037-0.123-2.372c-0.064-1.335-0.087-2.29-0.068-2.864v-11.471h2.174V258.969z"/>
	<path fill="#FFFFFF" d="M777.932,253.651c0,1.759-0.639,3.131-1.914,4.115c-1.276,0.984-3.008,1.477-5.195,1.477
		c-2.37,0-4.193-0.306-5.469-0.916v-2.242c0.82,0.347,1.713,0.62,2.68,0.82c0.966,0.2,1.923,0.301,2.871,0.301
		c1.549,0,2.716-0.294,3.5-0.882c0.783-0.588,1.176-1.406,1.176-2.454c0-0.692-0.14-1.26-0.417-1.702
		c-0.278-0.442-0.743-0.85-1.395-1.224c-0.652-0.374-1.644-0.798-2.974-1.271c-1.859-0.665-3.188-1.454-3.985-2.365
		c-0.798-0.911-1.196-2.101-1.196-3.568c0-1.54,0.578-2.767,1.736-3.678c1.157-0.911,2.688-1.367,4.594-1.367
		c1.986,0,3.814,0.364,5.482,1.094l-0.725,2.023c-1.65-0.692-3.254-1.039-4.813-1.039c-1.23,0-2.192,0.265-2.885,0.793
		c-0.693,0.528-1.039,1.263-1.039,2.201c0,0.692,0.127,1.26,0.383,1.702c0.255,0.442,0.686,0.848,1.292,1.217
		c0.605,0.369,1.533,0.777,2.782,1.224c2.096,0.747,3.538,1.55,4.327,2.406C777.537,251.171,777.932,252.284,777.932,253.651z"/>
	<path fill="#FFFFFF" d="M797.113,238.981v12.934c0,2.278-0.688,4.069-2.064,5.373c-1.377,1.304-3.268,1.955-5.674,1.955
		s-4.269-0.656-5.585-1.969c-1.317-1.313-1.976-3.117-1.976-5.414v-12.879h2.324v13.043c0,1.668,0.455,2.948,1.367,3.842
		c0.911,0.894,2.251,1.34,4.02,1.34c1.686,0,2.984-0.449,3.896-1.347c0.911-0.897,1.367-2.186,1.367-3.862v-13.016H797.113z"/>
	<path fill="#FFFFFF" d="M802.404,258.969v-19.988h2.324v17.883h8.818v2.105H802.404z"/>
	<path fill="#FFFFFF" d="M823.09,258.969h-2.324v-17.924h-6.33v-2.064h14.984v2.064h-6.33V258.969z"/>
	<path fill="#FFFFFF" d="M844.992,258.969l-2.488-6.357h-8.012l-2.461,6.357h-2.352l7.902-20.07h1.955l7.861,20.07H844.992z
		 M841.779,250.52l-2.324-6.193c-0.301-0.784-0.611-1.745-0.93-2.885c-0.201,0.875-0.488,1.837-0.861,2.885l-2.352,6.193H841.779z"
		/>
	<path fill="#FFFFFF" d="M865.76,258.969h-2.652l-10.924-16.775h-0.109c0.146,1.969,0.219,3.773,0.219,5.414v11.361h-2.146v-19.988
		h2.625l10.896,16.707h0.109c-0.019-0.246-0.06-1.037-0.123-2.372c-0.064-1.335-0.087-2.29-0.068-2.864v-11.471h2.174V258.969z"/>
	<path fill="#FFFFFF" d="M879.814,240.772c-2.197,0-3.931,0.731-5.202,2.194s-1.907,3.466-1.907,6.009
		c0,2.616,0.612,4.637,1.839,6.063c1.226,1.427,2.974,2.14,5.243,2.14c1.395,0,2.984-0.251,4.771-0.752v2.037
		c-1.386,0.52-3.095,0.779-5.127,0.779c-2.944,0-5.216-0.894-6.815-2.68s-2.399-4.325-2.399-7.615c0-2.06,0.385-3.864,1.155-5.414
		c0.77-1.55,1.882-2.743,3.336-3.582c1.453-0.839,3.165-1.258,5.134-1.258c2.096,0,3.928,0.383,5.496,1.148l-0.984,1.996
		C882.84,241.127,881.327,240.772,879.814,240.772z"/>
	<path fill="#FFFFFF" d="M894.006,248.975l5.332-9.994h2.516l-6.672,12.236v7.752h-2.352v-7.643l-6.658-12.346h2.543
		L894.006,248.975z"/>
</g>
<g>
	<path fill="none" d="M717.361,150.651c-9.428,0-18.228,6.757-20.899,17.128c-0.471,1.729-0.942,3.771-0.942,5.656v13.042
		c0,2.043,0.314,3.929,0.629,5.657c2.514,9.585,10.842,16.185,20.741,16.185c14.614,0,23.099-11.941,23.099-29.384
		C739.988,163.693,731.974,150.651,717.361,150.651z"/>
	
		<linearGradient id="SVGID_11_" gradientUnits="userSpaceOnUse" x1="773.5175" y1="0.2692" x2="773.5175" y2="152.3635" gradientTransform="matrix(1 0 0 -1 -56 224.702)">
		<stop  offset="0" style="stop-color:#553C18"/>
		<stop  offset="0.0374" style="stop-color:#6E5328"/>
		<stop  offset="0.0887" style="stop-color:#886C39"/>
		<stop  offset="0.141" style="stop-color:#9C7E45"/>
		<stop  offset="0.1942" style="stop-color:#A7884D"/>
		<stop  offset="0.25" style="stop-color:#AB8C4F"/>
		<stop  offset="0.2636" style="stop-color:#A7874A"/>
		<stop  offset="0.3075" style="stop-color:#9C7A3F"/>
		<stop  offset="0.35" style="stop-color:#99763B"/>
		<stop  offset="0.3761" style="stop-color:#9D7A3E"/>
		<stop  offset="0.4031" style="stop-color:#A78745"/>
		<stop  offset="0.4306" style="stop-color:#B99B53"/>
		<stop  offset="0.4584" style="stop-color:#D3B865"/>
		<stop  offset="0.4862" style="stop-color:#F3DD7C"/>
		<stop  offset="0.4879" style="stop-color:#F5E07E"/>
		<stop  offset="0.5028" style="stop-color:#F1DC7C"/>
		<stop  offset="0.5182" style="stop-color:#E6CF75"/>
		<stop  offset="0.5338" style="stop-color:#D4BB69"/>
		<stop  offset="0.5496" style="stop-color:#B99E58"/>
		<stop  offset="0.5654" style="stop-color:#987943"/>
		<stop  offset="0.5668" style="stop-color:#957541"/>
	</linearGradient>
	<path fill="url(#SVGID_11_)" d="M721.603,139.651c-12.413,0-21.37,5.5-27.026,14.771h-0.314l-0.629-13.043H681.22
		c0.313,7.229,0.628,15.085,0.628,24.828v54.644h1.436v3h-1.436v2.617h2.436v3h-2.436v2.616h3.436v3h-3.436v2.617h4.436v3h-4.436
		v2.617h5.436v3h-5.436v2.617h6.436v3h-6.436v2.617h7.436v3h-7.436v1.434h13.671V207.22h0.314
		c4.557,7.543,13.356,11.942,23.413,11.942c17.913,0,34.569-13.514,34.569-40.855C753.816,155.208,739.988,139.651,721.603,139.651z
		 M716.889,208.319c-9.899,0-18.228-6.6-20.741-16.185c-0.314-1.729-0.629-3.614-0.629-5.657v-13.042
		c0-1.886,0.472-3.928,0.942-5.656c2.672-10.371,11.472-17.128,20.899-17.128c14.613,0,22.627,13.042,22.627,28.284
		C739.988,196.378,731.503,208.319,716.889,208.319z"/>
</g>
<g enable-background="new    ">
	<path fill="#FFFFFF" d="M302.922,238.98h5.646c2.652,0,4.571,0.396,5.756,1.189c1.185,0.793,1.777,2.046,1.777,3.76
		c0,1.185-0.331,2.162-0.991,2.933c-0.661,0.771-1.625,1.27-2.892,1.497v0.137c3.035,0.52,4.553,2.114,4.553,4.785
		c0,1.786-0.604,3.181-1.812,4.184c-1.208,1.003-2.896,1.504-5.065,1.504h-6.973V238.98z M305.247,247.539h3.828
		c1.641,0,2.821-0.258,3.541-0.772c0.72-0.515,1.08-1.383,1.08-2.604c0-1.121-0.401-1.93-1.203-2.427
		c-0.802-0.497-2.078-0.745-3.828-0.745h-3.418V247.539z M305.247,249.507v7.479h4.17c1.613,0,2.828-0.313,3.644-0.937
		c0.815-0.624,1.224-1.602,1.224-2.933c0-1.239-0.417-2.151-1.251-2.734s-2.104-0.875-3.808-0.875H305.247z"/>
	<path fill="#FFFFFF" d="M336.159,238.98v12.934c0,2.278-0.688,4.069-2.064,5.373c-1.376,1.304-3.268,1.955-5.674,1.955
		s-4.268-0.656-5.585-1.969c-1.317-1.313-1.976-3.117-1.976-5.414V238.98h2.324v13.043c0,1.668,0.456,2.948,1.367,3.842
		c0.911,0.894,2.251,1.34,4.02,1.34c1.686,0,2.985-0.449,3.896-1.347c0.911-0.897,1.367-2.186,1.367-3.862V238.98H336.159z"/>
	<path fill="#FFFFFF" d="M352.729,253.65c0,1.759-0.638,3.131-1.914,4.115c-1.276,0.984-3.008,1.477-5.195,1.477
		c-2.37,0-4.193-0.306-5.469-0.916v-2.242c0.82,0.347,1.713,0.62,2.68,0.82c0.966,0.2,1.923,0.301,2.871,0.301
		c1.549,0,2.716-0.294,3.5-0.882c0.784-0.588,1.176-1.406,1.176-2.454c0-0.692-0.139-1.26-0.417-1.702
		c-0.278-0.442-0.743-0.85-1.395-1.224c-0.652-0.374-1.643-0.798-2.974-1.271c-1.859-0.665-3.188-1.454-3.985-2.365
		c-0.798-0.911-1.196-2.101-1.196-3.568c0-1.54,0.579-2.767,1.736-3.678c1.157-0.911,2.688-1.367,4.594-1.367
		c1.987,0,3.814,0.364,5.482,1.094l-0.725,2.023c-1.65-0.692-3.254-1.039-4.813-1.039c-1.23,0-2.192,0.265-2.885,0.793
		c-0.693,0.528-1.039,1.263-1.039,2.201c0,0.692,0.127,1.26,0.383,1.702c0.255,0.442,0.686,0.848,1.292,1.217
		c0.606,0.369,1.533,0.777,2.782,1.224c2.096,0.747,3.539,1.55,4.327,2.406C352.334,251.17,352.729,252.283,352.729,253.65z"/>
	<path fill="#FFFFFF" d="M356.817,258.968V238.98h2.324v19.988H356.817z"/>
	<path fill="#FFFFFF" d="M380.237,258.968h-2.652l-10.924-16.775h-0.109c0.146,1.969,0.219,3.773,0.219,5.414v11.361h-2.146V238.98
		h2.625l10.896,16.707h0.109c-0.019-0.246-0.06-1.037-0.123-2.372c-0.064-1.335-0.087-2.29-0.068-2.864V238.98h2.174V258.968z"/>
	<path fill="#FFFFFF" d="M396.875,258.968h-11.143V238.98h11.143v2.064h-8.818v6.439h8.285v2.051h-8.285v7.355h8.818V258.968z"/>
	<path fill="#FFFFFF" d="M412.584,253.65c0,1.759-0.638,3.131-1.914,4.115c-1.276,0.984-3.008,1.477-5.195,1.477
		c-2.37,0-4.193-0.306-5.469-0.916v-2.242c0.82,0.347,1.713,0.62,2.68,0.82c0.966,0.2,1.923,0.301,2.871,0.301
		c1.549,0,2.716-0.294,3.5-0.882c0.784-0.588,1.176-1.406,1.176-2.454c0-0.692-0.139-1.26-0.417-1.702
		c-0.278-0.442-0.743-0.85-1.395-1.224c-0.652-0.374-1.643-0.798-2.974-1.271c-1.859-0.665-3.188-1.454-3.985-2.365
		c-0.798-0.911-1.196-2.101-1.196-3.568c0-1.54,0.579-2.767,1.736-3.678c1.157-0.911,2.688-1.367,4.594-1.367
		c1.987,0,3.814,0.364,5.482,1.094l-0.725,2.023c-1.65-0.692-3.254-1.039-4.813-1.039c-1.23,0-2.192,0.265-2.885,0.793
		c-0.693,0.528-1.039,1.263-1.039,2.201c0,0.692,0.127,1.26,0.383,1.702c0.255,0.442,0.686,0.848,1.292,1.217
		c0.606,0.369,1.533,0.777,2.782,1.224c2.096,0.747,3.539,1.55,4.327,2.406C412.19,251.17,412.584,252.283,412.584,253.65z"/>
	<path fill="#FFFFFF" d="M427.952,253.65c0,1.759-0.638,3.131-1.914,4.115c-1.276,0.984-3.008,1.477-5.195,1.477
		c-2.37,0-4.193-0.306-5.469-0.916v-2.242c0.82,0.347,1.713,0.62,2.68,0.82c0.966,0.2,1.923,0.301,2.871,0.301
		c1.549,0,2.716-0.294,3.5-0.882c0.784-0.588,1.176-1.406,1.176-2.454c0-0.692-0.139-1.26-0.417-1.702
		c-0.278-0.442-0.743-0.85-1.395-1.224c-0.652-0.374-1.643-0.798-2.974-1.271c-1.859-0.665-3.188-1.454-3.985-2.365
		c-0.798-0.911-1.196-2.101-1.196-3.568c0-1.54,0.579-2.767,1.736-3.678c1.157-0.911,2.688-1.367,4.594-1.367
		c1.987,0,3.814,0.364,5.482,1.094l-0.725,2.023c-1.65-0.692-3.254-1.039-4.813-1.039c-1.23,0-2.192,0.265-2.885,0.793
		c-0.693,0.528-1.039,1.263-1.039,2.201c0,0.692,0.127,1.26,0.383,1.702c0.255,0.442,0.686,0.848,1.292,1.217
		c0.606,0.369,1.533,0.777,2.782,1.224c2.096,0.747,3.539,1.55,4.327,2.406C427.557,251.17,427.952,252.283,427.952,253.65z"/>
	<path fill="#FFFFFF" d="M438.11,253.787c0-1.185,0.316-2.233,0.95-3.145c0.633-0.911,1.771-1.832,3.411-2.762
		c-0.775-0.866-1.301-1.522-1.579-1.969c-0.278-0.446-0.499-0.911-0.663-1.395s-0.246-0.984-0.246-1.504
		c0-1.367,0.446-2.434,1.34-3.199c0.893-0.766,2.137-1.148,3.732-1.148c1.477,0,2.639,0.381,3.486,1.142s1.271,1.82,1.271,3.179
		c0,0.976-0.31,1.875-0.93,2.7c-0.62,0.825-1.646,1.661-3.076,2.509l5.564,5.346c0.51-0.565,0.918-1.229,1.224-1.989
		c0.305-0.761,0.563-1.593,0.772-2.495h2.297c-0.62,2.606-1.554,4.585-2.803,5.934l4.088,3.979h-3.131l-2.529-2.434
		c-1.076,0.966-2.169,1.659-3.281,2.078c-1.112,0.419-2.352,0.629-3.719,0.629c-1.96,0-3.479-0.483-4.56-1.449
		S438.11,255.491,438.11,253.787z M444.344,257.205c2.196,0,4.02-0.702,5.469-2.105l-5.975-5.797
		c-1.012,0.62-1.728,1.133-2.146,1.538c-0.419,0.405-0.729,0.841-0.93,1.306c-0.201,0.465-0.301,0.993-0.301,1.586
		c0,1.066,0.353,1.912,1.06,2.536C442.227,256.892,443.168,257.205,444.344,257.205z M442.225,242.958
		c0,0.629,0.164,1.229,0.492,1.798s0.889,1.256,1.682,2.058c1.176-0.684,1.994-1.314,2.454-1.894c0.46-0.579,0.69-1.246,0.69-2.003
		c0-0.702-0.235-1.273-0.704-1.716c-0.47-0.442-1.096-0.663-1.88-0.663c-0.812,0-1.47,0.219-1.976,0.656
		S442.225,242.22,442.225,242.958z"/>
	<path fill="#FFFFFF" d="M475.872,258.968l-6.781-17.719h-0.109c0.127,1.403,0.191,3.071,0.191,5.004v12.715h-2.146V238.98h3.5
		l6.33,16.488h0.109l6.385-16.488h3.473v19.988h-2.324v-12.879c0-1.477,0.063-3.081,0.191-4.813h-0.109l-6.836,17.691H475.872z"/>
	<path fill="#FFFFFF" d="M504.869,258.968l-2.488-6.357h-8.011l-2.461,6.357h-2.352l7.902-20.07h1.955l7.861,20.07H504.869z
		 M501.656,250.519l-2.324-6.193c-0.301-0.784-0.611-1.745-0.93-2.885c-0.201,0.875-0.488,1.837-0.861,2.885l-2.352,6.193H501.656z"
		/>
	<path fill="#FFFFFF" d="M525.637,258.968h-2.652l-10.924-16.775h-0.109c0.146,1.969,0.219,3.773,0.219,5.414v11.361h-2.146V238.98
		h2.625l10.896,16.707h0.109c-0.019-0.246-0.06-1.037-0.123-2.372s-0.087-2.29-0.068-2.864V238.98h2.174V258.968z"/>
	<path fill="#FFFFFF" d="M543.697,258.968l-2.488-6.357h-8.012l-2.461,6.357h-2.352l7.902-20.07h1.955l7.861,20.07H543.697z
		 M540.484,250.519l-2.324-6.193c-0.301-0.784-0.61-1.745-0.93-2.885c-0.2,0.875-0.487,1.837-0.861,2.885l-2.352,6.193H540.484z"/>
	<path fill="#FFFFFF" d="M557.643,248.496h6.795v9.721c-1.058,0.337-2.133,0.593-3.227,0.766s-2.36,0.26-3.801,0.26
		c-3.026,0-5.382-0.9-7.068-2.7s-2.529-4.322-2.529-7.567c0-2.078,0.417-3.898,1.251-5.462s2.034-2.757,3.603-3.582
		c1.567-0.825,3.404-1.237,5.51-1.237c2.133,0,4.12,0.392,5.961,1.176l-0.902,2.051c-1.805-0.766-3.541-1.148-5.209-1.148
		c-2.434,0-4.334,0.725-5.701,2.174s-2.051,3.459-2.051,6.029c0,2.698,0.658,4.744,1.976,6.139s3.252,2.092,5.804,2.092
		c1.386,0,2.739-0.159,4.061-0.479v-6.152h-4.471V248.496z"/>
	<path fill="#FFFFFF" d="M580.379,258.968h-11.143V238.98h11.143v2.064h-8.818v6.439h8.285v2.051h-8.285v7.355h8.818V258.968z"/>
	<path fill="#FFFFFF" d="M593.654,258.968l-6.781-17.719h-0.109c0.128,1.403,0.191,3.071,0.191,5.004v12.715h-2.146V238.98h3.5
		l6.33,16.488h0.109l6.385-16.488h3.473v19.988h-2.324v-12.879c0-1.477,0.063-3.081,0.191-4.813h-0.109l-6.836,17.691H593.654z"/>
	<path fill="#FFFFFF" d="M621.23,258.968h-11.143V238.98h11.143v2.064h-8.818v6.439h8.285v2.051h-8.285v7.355h8.818V258.968z"/>
	<path fill="#FFFFFF" d="M641.273,258.968h-2.652l-10.924-16.775h-0.109c0.146,1.969,0.219,3.773,0.219,5.414v11.361h-2.146V238.98
		h2.625l10.896,16.707h0.109c-0.019-0.246-0.06-1.037-0.123-2.372s-0.087-2.29-0.068-2.864V238.98h2.174V258.968z"/>
	<path fill="#FFFFFF" d="M652.922,258.968h-2.324v-17.924h-6.33v-2.064h14.984v2.064h-6.33V258.968z"/>
</g>
</svg>
